<svg id="Layer_1" xmlns="http://www.w3.org/2000/svg" viewBox="0 0 933.5 385.5"><style>.st0{fill:#FFFFFF;} .st1{fill:#E7E513;} .st2{fill:#B4BC35;}</style><path class="st0" d="M339.6 209.9l13.9-44.5s13.9 6.2 29.1 6.2c24.9 0 39.1-15.4 45.7-35h-.6c-4.7 3.9-19 7.4-29.1 7.4-44.2 0-69.4-36.2-69.4-72.6 0-35.9 26.4-71.4 72.3-71.4 42.7 0 86 32.3 86 101.4 0 57.5-35.3 117.7-101.1 117.7-29.6 0-46.8-9.2-46.8-9.2zm94.6-120.3c0-25.2-17.8-42.1-32.6-42.1-13 0-21.3 11.3-21.3 23.7 0 15.1 9.2 31.1 32 31.1 11.8 0 21.9-2.9 21.9-12.7zm82.1 19.5C516.3 48.3 535.9 0 596 0s79.7 48.3 79.7 109.1-19.6 110-79.7 110-79.7-49.2-79.7-110zm106.1 0c0-34.4-5.9-61.7-26.4-61.7s-26.4 27.3-26.4 61.7c0 34.7 5.9 62.6 26.4 62.6s26.4-27.9 26.4-62.6zm77.1-57.8c0-27.9 23.7-51.3 53.7-51.3 29.6 0 53.7 23.4 53.7 51.3 0 28.5-24 51-53.7 51-30 0-53.7-22.5-53.7-51zM875 3.6h45.1l-163.6 212h-45.1L875 3.6zM769.5 51c0-8.3-7.4-15.4-16.3-15.4s-16.3 7.1-16.3 15.4c0 8.9 7.4 15.7 16.3 15.7s16.3-6.8 16.3-15.7zm110.3 65.8c29.6 0 53.7 23.4 53.7 51.3 0 28.5-24 51-53.7 51-29.9 0-53.7-22.5-53.7-51 0-27.8 23.7-51.3 53.7-51.3zm0 66.8c8.9 0 16.3-6.8 16.3-15.7 0-8.3-7.4-15.4-16.3-15.4s-16.3 7.1-16.3 15.4c0 8.8 7.4 15.7 16.3 15.7zM106.8 275.4c11.6 0 20.6 9 20.6 20.5 0 11.9-9 21.1-20.6 21.1s-20.7-9.2-20.7-21.1c0-11.5 9-20.5 20.7-20.5zm0 36.5c8.2 0 14.8-6.8 14.8-15.9 0-8.8-6.6-15.4-14.8-15.4s-14.9 6.6-14.9 15.4c0 9 6.6 15.9 14.9 15.9zm28.8-35.8h22.2v4.9h-16.5v13.2h14.1v4.9h-14.1v17.2h-5.6v-40.2h-.1zm62.3-.7c11.6 0 20.6 9 20.6 20.5 0 11.9-9 21.1-20.6 21.1s-20.7-9.2-20.7-21.1c0-11.5 9.1-20.5 20.7-20.5zm0 36.5c8.2 0 14.8-6.8 14.8-15.9 0-8.8-6.6-15.4-14.8-15.4S183 287.2 183 296c0 9 6.7 15.9 14.9 15.9zm28.3-35.8h5.6v26c0 6.2 4 9.7 10.1 9.7 6.2 0 10.3-3.6 10.3-9.9V276h5.6v26c0 9-6.4 14.9-15.8 14.9s-15.8-6-15.8-14.9v-25.9zm42.1 0h12.3c4.2 0 6 .3 7.5.9 4.1 1.5 6.8 5.6 6.8 10.9 0 5.1-2.9 9.5-7.2 10.9v.1s.5.5 1.2 1.8l8.6 15.6h-6.4l-8.5-16H274v16h-5.6l-.1-40.2zm13.7 19.3c4.4 0 7.1-2.8 7.1-7.3 0-3-1.1-5.1-3.2-6.2-1.1-.6-2.4-.9-5.5-.9h-6.5v14.4h8.1zm37.6 12.1s4.3 4.3 10.3 4.3c3.8 0 7-2.1 7-5.9 0-8.7-19.5-6.8-19.5-19.2 0-6.3 5.4-11.2 13-11.2 7.5 0 11.4 4 11.4 4l-2.6 4.7s-3.7-3.5-8.8-3.5c-4.3 0-7.3 2.7-7.3 5.9 0 8.3 19.5 6.1 19.5 19.2 0 6.2-4.8 11.3-12.8 11.3-8.6 0-13.3-5.3-13.3-5.3l3.1-4.3zm39.6-26.5h-13.8v-4.9h33.2v4.9h-13.8v35.3h-5.6V281zm24.6-4.9h5.6v26c0 6.2 4 9.7 10.1 9.7 6.2 0 10.3-3.6 10.3-9.9V276h5.6v26c0 9-6.4 14.9-15.8 14.9s-15.8-6-15.8-14.9v-25.9zm42.1 0h13.3c12.3 0 20.4 7.4 20.4 20.1 0 12.8-8.1 20.2-20.4 20.2h-13.3v-40.3zm12.9 35.4c9.1 0 15-5.4 15-15.3s-6-15.2-15-15.2h-7.3v30.4l7.3.1zm29.3-35.4h23.4v4.9h-17.7v12.6h14.4v4.9h-14.4v12.9h18.7v4.9h-24.3v-40.2h-.1zm32.7 0h5.6l17.9 26.2c1.5 2.2 3.4 5.8 3.4 5.8h.1s-.4-3.6-.4-5.8v-26.2h5.6v40.2h-5.5l-18-26.1c-1.5-2.2-3.4-5.9-3.4-5.9h-.1s.4 3.6.4 5.9v26.1h-5.6v-40.2zm51.7 4.9h-13.8v-4.9h33.2v4.9h-13.8v35.3h-5.6V281zm25.3 26.5s4.3 4.3 10.3 4.3c3.8 0 7-2.1 7-5.9 0-8.7-19.5-6.8-19.5-19.2 0-6.3 5.4-11.2 13-11.2 7.5 0 11.4 4 11.4 4l-2.6 4.7s-3.7-3.5-8.8-3.5c-4.3 0-7.3 2.7-7.3 5.9 0 8.3 19.5 6.1 19.5 19.2 0 6.2-4.8 11.3-12.8 11.3-8.6 0-13.3-5.3-13.3-5.3l3.1-4.3zm45.7-31.4h12.3c4.2 0 6 .3 7.5.9 4.1 1.5 6.8 5.6 6.8 10.9 0 5.1-2.9 9.5-7.2 10.9v.1s.5.5 1.2 1.8l8.6 15.6h-6.4l-8.5-16h-8.6v16h-5.7v-40.2zm13.7 19.3c4.4 0 7.1-2.8 7.1-7.3 0-3-1.1-5.1-3.2-6.2-1.1-.6-2.4-.9-5.5-.9h-6.5v14.4h8.1zm22.9-19.3h23.4v4.9h-17.7v12.6h14.4v4.9h-14.4v12.9h18.7v4.9h-24.3v-40.2h-.1zm50.1-.7c9.7 0 14.7 5.3 14.7 5.3l-2.8 4.2s-4.7-4.4-11.6-4.4c-9 0-14.9 6.8-14.9 15.4 0 8.6 6 15.9 14.9 15.9 7.6 0 12.4-5.2 12.4-5.2l3 4s-5.5 6.4-15.6 6.4c-12.1 0-20.6-9.2-20.6-21 0-11.7 8.8-20.6 20.5-20.6zm23.4.7H757v4.9h-17.7v12.6h14.4v4.9h-14.4v12.9H758v4.9h-24.3v-40.2h-.1zm32.7 0h5.6v40.2h-5.6v-40.2zm11.4 0h6.1l10 28.4c.7 2.2 1.5 5.5 1.5 5.5h.1s.8-3.4 1.5-5.5l10.1-28.4h6l-14.8 40.2h-5.6l-14.9-40.2zm41.2 0h23.4v4.9h-17.8v12.6h14.4v4.9h-14.4v12.9h18.7v4.9h-24.3v-40.2zm-667.1 68.4H174v4.9h-16.5v13.2h14.1v4.9h-14.1v17.2h-5.6v-40.2h-.1zm29.7 0h5.6v40.2h-5.6v-40.2zm16.6 0h5.6l17.9 26.2c1.5 2.2 3.4 5.8 3.4 5.8h.1s-.4-3.6-.4-5.8v-26.2h5.6v40.2h-5.5l-18-26.1c-1.5-2.2-3.4-5.9-3.4-5.9h-.1s.4 3.6.4 5.9v26.1h-5.6v-40.2zm63.1 28.7H246l-4 11.6h-5.8l14.5-40.2h5.9l14.5 40.2h-5.9l-4-11.6zm-7.6-23.1s-.9 3.6-1.6 5.7l-4.5 12.8h12.2l-4.4-12.8c-.7-2.1-1.5-5.7-1.5-5.7h-.2zm23.5-5.6h5.6l17.9 26.2c1.5 2.2 3.4 5.8 3.4 5.8h.1s-.4-3.6-.4-5.8v-26.2h5.6v40.2h-5.5l-18-26.1c-1.5-2.2-3.4-5.9-3.4-5.9h-.1s.4 3.6.4 5.9v26.1h-5.6v-40.2zm60.9-.7c9.7 0 14.7 5.3 14.7 5.3l-2.8 4.2s-4.7-4.4-11.6-4.4c-9 0-14.9 6.8-14.9 15.4 0 8.6 6 15.9 14.9 15.9 7.6 0 12.4-5.2 12.4-5.2l3 4s-5.5 6.4-15.6 6.4c-12.1 0-20.6-9.2-20.6-21 0-11.7 8.8-20.6 20.5-20.6zm23.4.7h5.6v40.2h-5.6v-40.2zm36.5 28.7h-15.2l-4 11.6h-5.8l14.5-40.2h5.9l14.5 40.2h-5.9l-4-11.6zm-7.5-23.1s-.9 3.6-1.6 5.7l-4.5 12.8h12.2l-4.4-12.8c-.7-2.1-1.5-5.7-1.5-5.7h-.2zm23.4-5.6h5.6v35.4h18v4.9h-23.7v-40.3h.1zm64.8 28.7h-15.2l-4 11.6h-5.8l14.5-40.2h5.9l14.5 40.2h-5.9l-4-11.6zm-7.6-23.1s-.9 3.6-1.6 5.7l-4.5 12.8h12.2l-4.4-12.8c-.7-2.1-1.5-5.7-1.5-5.7h-.2zm23.5 25.8s4.3 4.3 10.3 4.3c3.8 0 7-2.1 7-5.9 0-8.7-19.5-6.8-19.5-19.2 0-6.3 5.4-11.2 13-11.2 7.5 0 11.4 4 11.4 4l-2.6 4.7s-3.7-3.5-8.8-3.5c-4.3 0-7.3 2.7-7.3 5.9 0 8.3 19.5 6.1 19.5 19.2 0 6.2-4.8 11.3-12.8 11.3-8.6 0-13.3-5.3-13.3-5.3l3.1-4.3zm31.2 0s4.3 4.3 10.3 4.3c3.8 0 7-2.1 7-5.9 0-8.7-19.5-6.8-19.5-19.2 0-6.3 5.4-11.2 13-11.2 7.5 0 11.4 4 11.4 4l-2.6 4.7s-3.7-3.5-8.8-3.5c-4.3 0-7.3 2.7-7.3 5.9 0 8.3 19.5 6.1 19.5 19.2 0 6.2-4.8 11.3-12.8 11.3-8.6 0-13.3-5.3-13.3-5.3l3.1-4.3zm31-31.4h5.6v40.2h-5.6v-40.2zm16.7 31.4s4.3 4.3 10.3 4.3c3.8 0 7-2.1 7-5.9 0-8.7-19.5-6.8-19.5-19.2 0-6.3 5.4-11.2 13-11.2 7.5 0 11.4 4 11.4 4l-2.6 4.7s-3.7-3.5-8.8-3.5c-4.3 0-7.3 2.7-7.3 5.9 0 8.3 19.5 6.1 19.5 19.2 0 6.2-4.8 11.3-12.8 11.3-8.6 0-13.3-5.3-13.3-5.3l3.1-4.3zm39.6-26.5h-13.8v-4.9h33.2v4.9h-13.8v35.3H613v-35.3zm42.7 23.8h-15.2l-4 11.6h-5.8l14.5-40.2h5.9l14.5 40.2h-5.9l-4-11.6zm-7.6-23.1s-.9 3.6-1.6 5.7l-4.5 12.8h12.2l-4.4-12.8c-.7-2.1-1.5-5.7-1.5-5.7h-.2zm23.4-5.6h5.6l17.9 26.2c1.5 2.2 3.4 5.8 3.4 5.8h.1s-.4-3.6-.4-5.8v-26.2h5.6v40.2h-5.5l-18-26.1c-1.5-2.2-3.4-5.9-3.4-5.9h-.1s.4 3.6.4 5.9v26.1h-5.6v-40.2zm60.9-.7c9.7 0 14.7 5.3 14.7 5.3l-2.8 4.2s-4.7-4.4-11.6-4.4c-9 0-14.9 6.8-14.9 15.4 0 8.6 6 15.9 14.9 15.9 7.6 0 12.4-5.2 12.4-5.2l3 4s-5.5 6.4-15.6 6.4c-12.1 0-20.6-9.2-20.6-21 .1-11.7 8.8-20.6 20.5-20.6zm23.5.7h23.4v4.9h-17.8V362h14.4v4.9h-14.4v13h18.7v4.9h-24.3v-40.3z"/><g id="AmCyv1.tif"><path class="st1" d="M40.8 104.2c-9.8-3.3-19.3-6.4-28.8-9.6-1.2-.4-2.4-.8-3.5-1.4-3.7-2.2-3.7-7.4.1-9.6.9-.5 1.9-.9 2.9-1.2C55.9 67.6 100.3 52.7 144.8 38c2.2-.7 5.1-.8 7.3-.1 44.7 14.8 89.4 29.7 134.1 44.6 2.7.9 5 2.2 5.2 5.4.2 2.9-1.3 5-4.7 6.1-12.4 4.2-24.7 8.3-37.1 12.4-32.4 10.8-64.9 21.7-97.3 32.4-2.1.7-4.7.9-6.7.3-23.9-7.8-47.7-15.8-71.5-23.7-.4-.1-.7-.3-1.5-.7 1.2-.5 2-1 2.9-1.3 24.6-9.5 49.2-19 73.8-28.4 4.6-1.7 6.7-5.3 5.3-9.1-1.4-3.9-5.2-5.6-9.8-3.9-18.6 6.9-37.2 13.9-55.7 21.1-8.2 3.2-16.2 6.8-24.2 10.3-11.9 5.2-18.9 14.3-21.3 27-.7 4-1.4 8-1.9 12-.1.9.5 2.2 1.2 2.9 7.4 6.5 7.8 15.7.9 22.7-.7.7-1 2-1 3 .6 11.5 2.1 23 1.9 34.4-.1 11.7-5 21.7-14.9 28.8-3.8 2.7-7.8 3.7-12.2 1.5-4.9-2.5-9.8-5-14.6-7.7-1-.5-1.8-1.4-3-2.4 1.2-1.4 2.2-2.6 3.3-3.7 11.3-11.1 19.2-24.2 22.7-39.7.3-1.5.7-3 1-4.5.8-3.9 1.3-7-3-10.3-7.1-5.4-6-16.8 1.5-22 1.9-1.4 2.5-2.8 2.7-5 1-10.2 2.8-20.1 8-29.1 1.5-2.4 3-4.5 4.6-7.1z"/><path class="st2" d="M240.2 125.6v3.4c0 10.7-.4 21.5.1 32.2.5 10.4-4.3 17.5-12.5 22.9-10 6.8-21.3 10.5-32.9 13.2-22.9 5.3-46.1 6.1-69.5 3.7-15.3-1.6-30.1-4.7-44.3-10.6-8.4-3.5-15.2-8.2-18.1-12 1.8-4.5 4.3-8.5 5-12.8 1.3-8.7-1.3-16.3-8.6-21.7-1.4-1-1.9-2-1.7-3.6.6-4.5 1.1-9.1 1.7-14 8.1 2.7 15.4 5.1 22.7 7.5 19.8 6.6 39.6 13.2 59.4 19.9 4.8 1.6 9.4 1.6 14.2 0 27.1-9.1 54.2-18.1 81.4-27.1.8-.3 1.7-.6 3.1-1z"/></g></svg>