<svg id="Layer_1" xmlns="http://www.w3.org/2000/svg" viewBox="0 0 864.6 346.8"><style>.st0{enable-background:new ;} .st1{fill:#FFFFFF;} .st2{fill:none;} .st3{fill:#E7E513;} .st4{fill:#B4BC35;}</style><path class="st0 st1" d="M44.5 107.5C32.7 97.2 24.3 83.9 24.3 64.9c0-32.3 22.7-64 74.6-64 41.3 0 75.2 23 75.2 64.3 0 23.9-19.6 47.9-21.8 50.7 14.9 10.3 26.1 24.5 26.1 46.9 0 33.9-27.3 67.7-82.3 67.7-54.1 0-82.3-33.6-82.3-69-.1-28.5 23.8-48.7 30.7-54zm36.6 22.4c-5.3 5.6-11.8 14.9-11.8 27 0 14.3 11.8 25.8 26.7 25.8 16.5 0 26.7-8.1 26.7-22.7.1-12.7-19.8-20.2-41.6-30.1zm32.1-33.3c1.9-3.4 7.8-13.7 7.8-27.3 0-12.4-8.7-20.5-23.3-20.5-14 0-20.2 7.8-20.2 17.4-.1 14.6 16.1 22 35.7 30.4zm96.3 18.7C209.5 51.6 230 .9 293.1.9s83.6 50.7 83.6 114.4-20.5 115.3-83.6 115.3-83.6-51.6-83.6-115.3zm111.2 0c0-36-6.2-64.6-27.7-64.6s-27.7 28.6-27.7 64.6c0 36.4 6.2 65.6 27.7 65.6s27.7-29.3 27.7-65.6zm84.6 2.1H469V48.1h42.3v69.3H575v40.4h-63.7v69H469v-69h-63.7v-40.4z"/><path class="st2" d="M0 296.3h864.6v50.5H0v-50.5z"/><path class="st0 st1" d="M44.3 295.6c10.2 0 15.4 5.6 15.4 5.6l-2.9 4.4s-4.9-4.6-12.2-4.6c-9.4 0-15.6 7.2-15.6 16.1 0 9 6.3 16.7 15.7 16.7 7.9 0 13-5.5 13-5.5l3.2 4.2s-5.8 6.7-16.4 6.7c-12.7 0-21.6-9.7-21.6-22-.1-12.3 9.1-21.6 21.4-21.6zm24.5.7h5.9v37h18.9v5.1H68.8v-42.1zm30.3 0h5.9v27.2c0 6.5 4.2 10.2 10.6 10.2 6.5 0 10.8-3.8 10.8-10.3v-27.1h5.9v27.2c0 9.4-6.8 15.7-16.6 15.7-9.9 0-16.6-6.3-16.6-15.7v-27.2zm44.1 0H158c7.1 0 12.2 3.9 12.2 10.8 0 4.1-2 7.4-5.3 9.1v.1c4.4 1.3 6.9 5.5 6.9 10.2 0 7.9-6.2 12-13.6 12h-15.1v-42.2h.1zM158 314c3.8 0 6.2-2.7 6.2-6.4s-2.3-6.2-6.3-6.2h-8.7V314h8.8zm.7 19.3c4.5 0 7.2-2.9 7.2-7.2s-2.9-7.2-7.3-7.2h-9.4v14.4h9.5zm22.5-4.2s4.5 4.5 10.8 4.5c3.9 0 7.3-2.2 7.3-6.2 0-9.1-20.4-7.2-20.4-20.1 0-6.6 5.7-11.8 13.6-11.8 7.8 0 12 4.2 12 4.2l-2.7 4.9s-3.9-3.6-9.3-3.6c-4.5 0-7.6 2.8-7.6 6.2 0 8.7 20.4 6.4 20.4 20.1 0 6.5-5 11.9-13.4 11.9-9 0-14-5.6-14-5.6l3.3-4.5zm68.8-2.8h-15.9l-4.2 12.1h-6.1l15.2-42.2h6.2l15.2 42.2h-6.2l-4.2-12.1zm-7.9-24.2s-1 3.8-1.7 6l-4.7 13.4h12.8l-4.7-13.4c-.7-2.2-1.6-6-1.7-6zm24.5-5.8h5.9l18.8 27.4c1.6 2.3 3.5 6.1 3.5 6.1h.1s-.4-3.8-.4-6.1v-27.4h5.9v42.2h-5.8l-18.8-27.4c-1.6-2.3-3.5-6.2-3.5-6.2h-.1s.4 3.8.4 6.2v27.4h-5.9v-42.2h-.1zm45.3 0h14c12.9 0 21.4 7.7 21.4 21 0 13.4-8.5 21.2-21.4 21.2h-14v-42.2zm13.5 37c9.5 0 15.7-5.6 15.7-16 0-10.3-6.3-15.9-15.7-15.9h-7.6v31.9h7.6zm64.9-37.7c12.2 0 21.6 9.4 21.6 21.5 0 12.4-9.4 22.1-21.6 22.1-12.2 0-21.7-9.7-21.7-22.1 0-12.2 9.5-21.5 21.7-21.5zm0 38.1c8.6 0 15.5-7.2 15.5-16.7 0-9.2-6.9-16.1-15.5-16.1s-15.6 6.9-15.6 16.1c0 9.6 7 16.7 15.6 16.7zm30.2-37.4h12.9c4.4 0 6.3.4 7.9 1 4.3 1.6 7.1 5.9 7.1 11.4 0 5.4-3 9.9-7.6 11.4v.1s.5.5 1.3 1.9l9 16.4h-6.7l-8.9-16.8h-9v16.8h-5.9l-.1-42.2zm14.4 20.2c4.6 0 7.5-2.9 7.5-7.6 0-3.1-1.2-5.3-3.3-6.5-1.1-.6-2.5-1-5.8-1h-6.8v15.1h8.4zm42.6-20.9c10.1 0 15.4 5.1 15.4 5.1l-3 4.4s-4.7-4.1-11.9-4.1c-9.9 0-15.9 7.2-15.9 16.3 0 9.8 6.7 16.6 15.5 16.6 7.3 0 12-5.3 12-5.3v-6.1h-6.9v-5.1h12.2v21.2h-5.1V336c0-.9.1-1.8.1-1.8h-.1s-4.6 5.1-13 5.1c-11.4 0-20.7-9-20.7-21.9-.1-12.3 9.1-21.8 21.4-21.8zm47.7 30.7h-15.9l-4.2 12.1H499l15.2-42.2h6.2l15.2 42.2h-6.2l-4.2-12.1zm-8-24.2s-1 3.8-1.7 6l-4.7 13.4h12.8l-4.7-13.4c-.7-2.2-1.6-6-1.7-6zm24.6-5.8h5.9l18.8 27.4c1.6 2.3 3.5 6.1 3.5 6.1h.1s-.4-3.8-.4-6.1v-27.4h5.9v42.2h-5.8L551 311.1c-1.6-2.3-3.5-6.2-3.5-6.2h-.1s.4 3.8.4 6.2v27.4h-6v-42.2zm45.2 0h5.9v42.2H587v-42.2zm14.1 38.2l20.3-29.3c1.6-2.4 3-3.9 3-3.9v-.1s-1.1.2-3.2.2h-19.1v-5.1h29.7v3.9l-20.3 29.3c-1.6 2.3-3 3.8-3 3.8v.1s1.1-.1 3.2-.1h20.4v5.1h-31v-3.9zm60.5-8.2h-15.9l-4.2 12.1h-6.1l15.2-42.2h6.2l15.2 42.2h-6.2l-4.2-12.1zm-8-24.2s-1 3.8-1.7 6l-4.7 13.4H660l-4.7-13.4c-.7-2.2-1.6-6-1.7-6zm31-.7h-14.5v-5.1h34.8v5.1h-14.5v37h-5.9v-37h.1zm26.5-5.1h5.9v42.2h-5.9v-42.2zm36.2-.7c12.2 0 21.6 9.4 21.6 21.5 0 12.4-9.4 22.1-21.6 22.1s-21.7-9.7-21.7-22.1c0-12.2 9.5-21.5 21.7-21.5zm0 38.1c8.6 0 15.5-7.2 15.5-16.7 0-9.2-6.9-16.1-15.5-16.1s-15.6 6.9-15.6 16.1c0 9.6 7 16.7 15.6 16.7zm30.2-37.4h5.9l18.8 27.4c1.6 2.3 3.5 6.1 3.5 6.1h.1s-.4-3.8-.4-6.1v-27.4h5.9v42.2h-5.8l-18.8-27.4c-1.6-2.3-3.5-6.2-3.5-6.2h-.1s.4 3.8.4 6.2v27.4h-5.9l-.1-42.2zm45.4 32.8s4.5 4.5 10.8 4.5c3.9 0 7.3-2.2 7.3-6.2 0-9.1-20.4-7.2-20.4-20.1 0-6.6 5.7-11.8 13.6-11.8 7.8 0 12 4.2 12 4.2l-2.7 4.9s-3.9-3.6-9.3-3.6c-4.5 0-7.6 2.8-7.6 6.2 0 8.7 20.4 6.4 20.4 20.1 0 6.5-5 11.9-13.4 11.9-9 0-14-5.6-14-5.6l3.3-4.5z"/><path class="st3" d="M804.4 126.1L788.7 157l-4.4 16.9-27.7-48.6 27.3-14.9 7.6-15.7 12.9 31.4zm-121.2-7.6c-7.6 8.4-14.9 27.3-20.1 53.4l-32.9-52.2 35.7-13.3 4.4-14.1 12.9 26.2zm125.2 116.4h10.8l-20.9-36.5 6-22.9 11.6-13.2 36.9 74.3 11.6-9.2-29.7-90.8c7.6-7.6 10.8-17.7 3.2-31.7l-21.3-41c-5.2-9.2-13.2-9.6-18.5-6.8-9.2 4.8-16.9 8.4-18.5 17.7l-2.4 20.1-41 31.3 4 7.6 7.2-3.6 33.7 57.8-10.8 42.6 17.7 6 6.8-24.5 13.6 22.8zm-67.8 2.8l12.8-9.2-36.1-98.4c9.2-9.2 9.2-24.1 4-36.1L696 46.6c-5.6-10.4-13.7-9.6-20.1-7.6-12 2.8-17.3 14.5-18.1 20.9l-3.2 29.3-42.5 27.7 2.4 8.4 6.8-2.4 39 62.2-10 47 19.3 6.4L676 210l14.8 24.9H702l-23.7-38.1 3.6-18.1 16.5-26.5 42.2 85.5zM832.9 49c-2-4.4-4-4.8-8.4-2.8l-3.2 2c-4.4 2-5.2 4-2.8 8.4L839 94.7c2 4.4 3.6 4.8 8 2.4l3.6-2c4.4-2 4.8-3.6 2.8-8L832.9 49zM714.1 29.7c-2.4-5.6-4.8-6-9.6-3.2l-4 2c-5.2 2.8-5.6 4.4-2.8 10L721 82.7c2.4 5.2 4.8 5.6 10 2.8l3.6-1.6c5.2-3.2 6-4.8 3.2-10l-23.7-44.2zm53 8.1c0 10 8 17.7 17.7 17.7 10 0 17.7-7.6 17.7-17.7 0-9.6-7.6-17.7-17.7-17.7-9.7 0-17.7 8-17.7 17.7M643.8 18.9c0 10.8 8.4 18.9 19.3 18.9 10.4 0 18.9-8 18.9-18.9C682 8.5 673.6 0 663.1 0c-10.9 0-19.3 8.4-19.3 18.9"/><path class="st4" d="M847 97.2l3.6-2c4.4-2 4.8-3.6 2.8-8l-20.5-38.1c-2-4.4-4-4.8-8.4-2.8l-3.2 2c-4.4 2-5.2 4-2.8 8.4L839 94.8c2 4.4 3.6 4.8 8 2.4zm-8.8 7.6l-21.3-41c-5.2-9.2-13.2-9.6-18.5-6.8-9.2 4.8-16.9 8.4-18.5 17.7l-2.4 20.1-41 31.3 4 7.6 7.2-3.6 33.7 57.8-10.8 42.6 17.7 6 6.8-24.5 13.2 22.9h10.8l-20.9-36.5 6-22.9 11.6-13.3 36.9 74.3 11.6-9.2-29.7-90.8c8-7.6 11.2-17.6 3.6-31.7zM788.8 157l-4.4 16.9-27.7-48.6 27.3-14.9 7.6-15.7 12.8 31.3-15.6 31zm13.6-119.2c0-9.6-7.6-17.7-17.7-17.7-9.6 0-17.7 8-17.7 17.7 0 10 8 17.7 17.7 17.7 10.1-.1 17.7-7.7 17.7-17.7z"/></svg>