<svg id="Layer_1" data-name="Layer 1" xmlns="http://www.w3.org/2000/svg" viewBox="0 0 157.93 154.27"><defs><style>.cls-1{fill:#135841;}.cls-2{fill:#e8e613;}.cls-3{fill:#b5bd35;}.cls-4{fill:#022a1c;}.cls-5{opacity:0.93;}</style></defs><title>Artboard 1</title><path class="cls-1" d="M80 0l63.05 31.06 7.65 34.97-103.08-50.8L80 0z"/><path class="cls-2" d="M135.44 127.61l-24.39-112.3 32 15.75 14.88 68.72-22.49 27.83z"/><path class="cls-3" d="M77.53 154.27l72.83-89.48 7.57 34.99-43.73 54.49H77.53z"/><path class="cls-1" d="M21.74 125.71l114.77.8-22.31 27.76H44.15l-22.41-28.56z"/><path class="cls-4" d="M8.25 63.64l71.16 90.63H44.15L0 98.44l8.25-34.8z"/><path class="cls-2" d="M47.62 15.23L22.05 126.65 0 98.47 16.27 30.1l31.35-14.87z"/><g class="cls-5"><path class="cls-3" d="M49.1 55.28h10.2c4.77 0 8 3.5 8 8.44s-3.23 8.51-8 8.51h-4.19v7.58h-6zm9 11.81c2.09 0 3.12-1.41 3.12-3.36s-1-3.29-3-3.29h-3.11v6.66zM71.34 72.16s2.78 2.54 5.87 2.54c1.24 0 2.57-.48 2.57-2 0-2.92-11-2.81-11-10.36 0-4.53 3.81-7.52 8.68-7.52 5.29 0 7.89 2.78 7.89 2.78l-2.54 4.91a9.36 9.36 0 0 0-5.42-2.16c-1.24 0-2.61.55-2.61 1.92 0 3.09 11.05 2.54 11.05 10.29 0 4.08-3.12 7.62-8.65 7.62a12.67 12.67 0 0 1-9-3.5zM88.7 55.28h6v15.51c0 2.57 1.68 3.95 4.25 3.95s4.26-1.37 4.26-3.95V55.28h6v15.51c0 5.53-4 9.44-10.23 9.44s-10.3-3.91-10.3-9.44z"/></g><path class="cls-1" d="M53.11 83.19a4.79 4.79 0 0 1 3.41 1.26l-.81 1.25a4.08 4.08 0 0 0-2.53-1 3 3 0 0 0-3.1 3.18 3.13 3.13 0 0 0 3.11 3.31A4 4 0 0 0 55.88 90l.89 1.21a5 5 0 0 1-3.64 1.5 4.78 4.78 0 0 1 0-9.56zM58 83.35h1.68v7.81h4v1.44H58zM64.55 83.35h1.68v5.93a2.06 2.06 0 0 0 4.1 0v-5.93H72v5.93a3.74 3.74 0 0 1-7.47 0zM74.11 90.23a3.71 3.71 0 0 0 2.31 1c.7 0 1.34-.37 1.34-1.12 0-1.65-4.37-1.37-4.37-4.21a2.84 2.84 0 0 1 3.1-2.68 3.93 3.93 0 0 1 2.76 1l-.73 1.37a3.38 3.38 0 0 0-2-.81c-.78 0-1.39.46-1.39 1.11 0 1.64 4.35 1.24 4.35 4.2a2.76 2.76 0 0 1-3 2.71 4.48 4.48 0 0 1-3.19-1.26zM82.71 84.8h-3v-1.45h7.75v1.45h-3v7.8h-1.75zM88.32 83.35h5.54v1.45H90v2.42h3.11v1.45H90v2.49h4.07v1.44h-5.75zM95.48 83.35h3a4.3 4.3 0 0 1 1.86.26 2.61 2.61 0 0 1 1.51 2.53 2.66 2.66 0 0 1-1.56 2.53 2.23 2.23 0 0 1 .31.46l1.9 3.45h-1.88l-1.84-3.45h-1.62v3.47h-1.68zm3.19 4.34a1.34 1.34 0 0 0 1.46-1.46c0-.89-.38-1.43-1.69-1.43h-1.28v2.89zM103.93 90.23a3.71 3.71 0 0 0 2.31 1c.7 0 1.34-.37 1.34-1.12 0-1.65-4.37-1.37-4.37-4.21a2.84 2.84 0 0 1 3.1-2.68 3.93 3.93 0 0 1 2.76 1l-.73 1.37a3.38 3.38 0 0 0-2-.81c-.78 0-1.39.46-1.39 1.11 0 1.64 4.35 1.24 4.35 4.2a2.76 2.76 0 0 1-3 2.71 4.48 4.48 0 0 1-3.3-1.31zM53.92 102.57h-2.87l-.69 2.1h-1.53l2.88-8.18h1.56l2.88 8.18h-1.54zm-1.44-4.67s-.18.81-.35 1.27l-.73 2.19h2.14l-.73-2.19c-.15-.46-.32-1.27-.32-1.27zM56.91 96.48h3.16a2.51 2.51 0 0 1 2.6 2.66 2.54 2.54 0 0 1-2.6 2.7h-1.68v2.82h-1.48zm2.88 4.07a1.29 1.29 0 0 0 1.37-1.41 1.27 1.27 0 0 0-1.35-1.38h-1.42v2.79zM63.7 96.48h3.16a2.51 2.51 0 0 1 2.6 2.66 2.54 2.54 0 0 1-2.6 2.7h-1.68v2.82H63.7zm2.88 4.07a1.29 1.29 0 0 0 1.37-1.41 1.27 1.27 0 0 0-1.35-1.38h-1.42v2.79zM70.48 96.48h2.64a3.8 3.8 0 0 1 1.65.23A2.31 2.31 0 0 1 76.11 99a2.35 2.35 0 0 1-1.38 2.23 2 2 0 0 1 .28.4l1.68 3.05H75l-1.62-3.05H72v3.05h-1.52zm2.82 3.84A1.19 1.19 0 0 0 74.6 99c0-.78-.33-1.27-1.5-1.27H72v2.56zM81.44 96.35a4.13 4.13 0 0 1 4.23 4.17 4.23 4.23 0 1 1-8.46 0 4.13 4.13 0 0 1 4.23-4.17zm0 7.1a2.77 2.77 0 0 0 2.7-2.93 2.7 2.7 0 1 0-5.39 0 2.77 2.77 0 0 0 2.69 2.92zM91 102.57h-2.9l-.69 2.1h-1.54l2.88-8.18h1.56l2.88 8.18h-1.53zm-1.48-4.67s-.18.81-.35 1.27l-.73 2.19h2.16l-.73-2.19c-.15-.46-.32-1.27-.32-1.27zM97.59 96.35a4.23 4.23 0 0 1 3 1.12l-.71 1.11a3.61 3.61 0 0 0-2.24-.86 2.67 2.67 0 0 0-2.74 2.81 2.76 2.76 0 0 0 2.75 2.93 3.52 3.52 0 0 0 2.37-1l.78 1.07a4.4 4.4 0 0 1-3.21 1.33 4.23 4.23 0 0 1 0-8.46zM101.92 96.48h1.49V100h3.74v-3.52h1.49v8.18h-1.49v-3.43h-3.75v3.43h-1.49z"/><path class="cls-3" d="M79.67 31.08L7.97 64.82l8.27-34.81 31.4-14.78 32.03 15.85z"/></svg>