<svg id="Layer_1" xmlns="http://www.w3.org/2000/svg" viewBox="0 0 1083.9 321.4"><style>.st0{fill:#FFFFFF;} .st1{fill:#E7E513;} .st2{fill:#B4BC35;}</style><path class="st0" d="M6.2 173.4h45.7V83.9c0-8.1.3-16.5.3-16.5h-.6s-2.7 6-8.4 11.4L30.3 90.5 0 58.1 58 3.7h45.4v169.7h46v45.1H6.4v-45.1h-.2zm186.5-20.2s19.5 19.2 43.6 19.2c14.1 0 30-8.7 30-26.4 0-16.8-14.7-26.7-34.2-26.7-16.5 0-28.8 7.2-28.8 7.2L175.4 116l8.7-112.4h120.2v45.1h-74.5l-1.2 19.8c0 4.2-1.2 8.4-1.2 8.4h.6s7.5-2.1 15.6-2.1c51.1 0 76.9 31.8 76.9 70.6 0 44.5-32.7 76.6-79.6 76.6-47.5 0-73.3-28.2-73.3-28.2l25.1-40.6zm154.1-42.6C346.8 49 366.6 0 427.6 0s80.8 49 80.8 110.6-19.8 111.5-80.8 111.5-80.8-49.9-80.8-111.5zm107.6 0c0-34.8-6-62.5-26.7-62.5S401 75.7 401 110.6c0 35.1 6 63.4 26.7 63.4s26.7-28.3 26.7-63.4zm81.7 2.1h61.6v-67h40.9v67h61.5v39.1h-61.6v66.7h-40.9v-66.7h-61.5v-39.1zM165.4 279.1c9.8 0 14.8 5.4 14.8 5.4l-2.8 4.3s-4.7-4.4-11.8-4.4c-9.1 0-15.1 6.9-15.1 15.6s6.1 16.1 15.1 16.1c7.7 0 12.6-5.3 12.6-5.3l3.1 4.1s-5.6 6.5-15.8 6.5c-12.2 0-20.9-9.4-20.9-21.3 0-12 8.9-21 20.8-21zm41.6 0c11.8 0 20.9 9.1 20.9 20.8 0 12-9.1 21.4-20.9 21.4s-21-9.4-21-21.4c0-11.8 9.2-20.8 21-20.8zm0 36.9c8.3 0 15-6.9 15-16.1 0-8.9-6.7-15.6-15-15.6s-15.1 6.7-15.1 15.6c0 9.2 6.8 16.1 15.1 16.1zm31.3-36.2h6l9.4 22.1c.9 2.3 2 5.5 2 5.5h.1s1.1-3.2 2-5.5l9.4-22.1h6l3.3 40.8h-5.7l-2-25.7c-.2-2.5-.1-6-.1-6h-.1s-1.2 3.8-2.2 6l-8.1 18.4h-5.1l-8.1-18.4c-.9-2.2-2.2-6.1-2.2-6.1h-.1s.1 3.6-.1 6.1l-2 25.7H235l3.3-40.8zm50 0h6l9.4 22.1c.9 2.3 2 5.5 2 5.5h.1s1.1-3.2 2-5.5l9.4-22.1h6l3.3 40.8h-5.7l-2-25.7c-.2-2.5-.1-6-.1-6h-.1s-1.2 3.8-2.2 6l-8.1 18.4h-5.1l-8.1-18.4c-.9-2.2-2.2-6.1-2.2-6.1h-.1s.1 3.6-.1 6.1l-2 25.7H285l3.3-40.8zm47.4 0h5.7v26.3c0 6.2 4 9.9 10.3 9.9s10.4-3.6 10.4-10v-26.2h5.7v26.3c0 9.1-6.5 15.1-16.1 15.1-9.5 0-16.1-6.1-16.1-15.1v-26.3h.1zm42.7 0h5.7l18.1 26.5c1.5 2.2 3.4 5.9 3.4 5.9h.1s-.4-3.6-.4-5.9v-26.5h5.7v40.8h-5.6l-18.2-26.5c-1.5-2.3-3.4-6-3.4-6h-.1s.4 3.6.4 6v26.5h-5.7v-40.8zm43.7 0h5.7v40.8h-5.7v-40.8zm25.5 4.9h-14v-5h33.7v5h-14v35.8h-5.7v-35.8zm35.5 18.6l-13.7-23.5h6.5l7.6 13.4c1.3 2.3 2.5 5.1 2.5 5.1h.1s1.2-2.8 2.5-5.1l7.5-13.4h6.5l-13.8 23.5v17.3h-5.7v-17.3zm40.2-23.5h14.9c7.5 0 12.8 5 12.8 12.8s-5.4 12.9-12.8 12.9H529v15.1h-5.7v-40.8zm14 20.7c4.9 0 7.9-3.1 7.9-8s-3-7.8-7.9-7.8H529v15.8h8.3zm39.9 8.3h-15.4l-4 11.7h-5.9l14.7-40.8h6l14.7 40.8h-6l-4.1-11.7zm-7.7-23.4s-.9 3.7-1.6 5.8l-4.6 12.9h12.4l-4.5-12.9c-.7-2.1-1.6-5.8-1.6-5.8h-.1zm23.7-5.6h12.5c4.3 0 6.1.3 7.6.9 4.2 1.6 6.9 5.7 6.9 11 0 5.2-2.9 9.6-7.3 11v.1s.5.5 1.2 1.8l8.7 15.8h-6.5l-8.6-16.2H599v16.2h-5.7v-40.6h-.1zm13.9 19.6c4.4 0 7.2-2.8 7.2-7.4 0-3-1.2-5.1-3.2-6.3-1.1-.6-2.4-.9-5.6-.9h-6.6v14.6h8.2zm31.9-14.7h-14v-5h33.7v5h-14v35.8H639v-35.8zm25.5-4.9h5.7l18.1 26.5c1.5 2.2 3.4 5.9 3.4 5.9h.1s-.4-3.6-.4-5.9v-26.5h5.7v40.8h-5.6l-18.2-26.5c-1.5-2.3-3.4-6-3.4-6h-.1s.4 3.6.4 6v26.5h-5.7v-40.8zm43.7 0h23.7v5h-18v12.8h14.6v5h-14.6v13.1h18.9v5h-24.7l.1-40.9zm33.1 0h12.5c4.3 0 6.1.3 7.6.9 4.2 1.6 6.9 5.7 6.9 11 0 5.2-2.9 9.6-7.3 11v.1s.5.5 1.2 1.8l8.7 15.8h-6.5l-8.6-16.2h-8.7v16.2h-5.7l-.1-40.6zm14 19.6c4.4 0 7.2-2.8 7.2-7.4 0-3-1.2-5.1-3.2-6.3-1.1-.6-2.4-.9-5.6-.9h-6.6v14.6h8.2zm23.2 12.1s4.3 4.4 10.4 4.4c3.8 0 7-2.1 7-6 0-8.8-19.8-6.9-19.8-19.5 0-6.4 5.5-11.4 13.2-11.4 7.6 0 11.6 4.1 11.6 4.1l-2.6 4.7s-3.8-3.5-9-3.5c-4.3 0-7.4 2.7-7.4 6 0 8.4 19.8 6.2 19.8 19.4 0 6.3-4.9 11.5-12.9 11.5-8.7 0-13.5-5.4-13.5-5.4l3.2-4.3zm31.4-31.7h5.7v17.9h21.1v-17.9h5.7v40.8h-5.7v-17.9h-21.1v17.9h-5.7v-40.8zm43.7 0h5.7v40.8h-5.7v-40.8zm16.8 0h14.9c7.5 0 12.8 5 12.8 12.8s-5.4 12.9-12.8 12.9h-9.2v15.1h-5.7v-40.8zm14 20.7c4.9 0 7.9-3.1 7.9-8s-3-7.8-7.9-7.8h-8.3v15.8h8.3zm21.2 11s4.3 4.4 10.4 4.4c3.8 0 7-2.1 7-6 0-8.8-19.8-6.9-19.8-19.5 0-6.4 5.5-11.4 13.2-11.4 7.6 0 11.6 4.1 11.6 4.1l-2.6 4.7s-3.8-3.5-9-3.5c-4.3 0-7.4 2.7-7.4 6 0 8.4 19.8 6.2 19.8 19.4 0 6.3-4.9 11.5-12.9 11.5-8.7 0-13.5-5.4-13.5-5.4l3.2-4.3z"/><path class="st1" d="M901 114.7c-.6.5-1.3 1-1.9 1.5-10.4 8.7-20.4 17.9-31.4 25.9-12.7 9.2-26.1 17.5-39.3 25.9-7 4.4-12.8 4.1-19-1.4-4.7-4.1-6.9-8.5-3.1-14.3 3.1-4.6 6.7-9.1 10.9-12.8 12.3-10.7 24.9-21 37.5-31.3 18.1-14.7 35.9-29.7 52.8-45.8 1.3-1.3 2.4-1.6 3.9-.6 5.7 3.7 11.5 7.3 17.2 11C936.7 78 944.8 83 954 86.2c11.9 4.1 22.2 1.3 31.1-7.2 4.4-4.2 5-8.2 2.4-13.8-3-6.2-7.2-11.5-12.1-16.1-8.7-8.3-17.7-16.3-26.6-24.3-.5-.5-1.1-.9-2-1.6 4.2 0 8-.2 11.7 0 19.8 1.4 39.6 3.2 59.5 4.4 12.5.8 24.7-.9 36.2-6.2l2.4-1.2c.7-.4 1.5-.7 2.7-1.3 10.9 31.2 18.6 63 24.6 95.6h-3.3c-10.2-.2-20.5-.2-30.6 1.5-5.4.9-10.7 2.4-15.8 4.3-7.8 2.9-13.9 8.1-17.2 16.1-1.8-1.2-3.4-2.4-5.1-3.5-5.8-3.4-12-4.7-18.6-2.4-5.7 2-9 6-10.5 11.7-.8 3.4-1.8 6.7-2.7 10-3.4-.4-6.8-.9-10.2-1-8.3-.4-14.8 4.2-16.3 11.4-.8 3.8-.3 7.5.6 11.2.7 3 1.3 6.1 1.9 9.2-3.5 1.1-7 1.9-10.4 3.1-6.3 2.2-10.2 7.5-10.1 14.3 0 3.5.5 7.1 1.1 10.5.3 1.9.1 2.9-1.7 3.8-4.5 2.3-8.9 4.6-14 5.3-8 1.2-14.3-4.9-13.3-12.9.1-.8.9-1.7 1.5-2.3 10.2-9.9 20-20.2 28-31.9 3.3-4.7 5.9-9.9 8.9-14.8.4-.6.6-1.3.8-2-.2-.2-.4-.3-.6-.5-1.1 1.2-2.1 2.5-3.3 3.7-9.7 10-19.3 20-29.2 29.8-5.9 5.9-12.5 11.1-20.6 13.8-5.4 1.8-10.7 2.8-16.3.5-3.6-1.5-5.5-4.1-6-7.9-.1-.6.3-1.7.8-1.9 9.6-4.1 17.4-10.7 24.8-17.7 10.7-10.1 20.5-21 28.8-33.2 1.3-2 2.4-4.1 3.7-6.2-.3-.2-.5-.4-.8-.6-.4.6-.8 1.3-1.3 1.8-12.3 12.9-24.9 25.5-39.2 36.3-5.7 4.3-11.8 8.2-18.1 11.5-5.8 3-12.2 4.5-19 3.6-6.1-.8-9-3.8-9.5-9.9-.1-.7 0-1.4-.1-2.1-.2-4.7 1.3-7.8 5.6-10.6 18.6-12 35.1-26.7 49.5-43.5 1.4-1.6 2.6-3.4 3.8-5.2.5-.8.8-1.8 1.2-2.7.3-.2.1-.3-.1-.4z"/><path class="st2" d="M744.3 150.6c13.6-35.8 27.1-71.3 41.8-106.5 1.2.5 2.2 1 3.2 1.4 9.3 4.1 18.6 8.5 28.1 12.3 6.9 2.7 14.3 3.7 21.7 2.7 8.7-1.2 15.5-5.7 21.3-12.1 9.2-10.2 19.5-19.1 31.7-25.5 4.8-2.6 10.1-4.3 15.2-6.2 3.9-1.4 7.9-1.1 11.6.7 4.6 2.2 9.2 4.4 13.4 7.1 12.8 8.1 24.4 17.8 34.6 29 3.1 3.4 5.6 7.2 8.2 11 4.7 6.9-2.5 14.5-8.4 14.3-4.3-.1-8.4-1.1-12-3.1-8.1-4.4-16-9.2-24-13.8-4.6-2.6-9.1-5.3-13.7-7.9-1.4-.8-2.9-1.3-4.4-1.9-3.1-1.1-5.9-.9-8.6 1.3-9.3 7.5-18.8 14.8-27.9 22.6-19.4 16.4-38.6 33-57.8 49.6-6.4 5.6-12.2 11.8-17.1 18.8-2.9 4.1-5.2 8.5-6.3 13.5-.3 1.3-.9 1.8-2.2 1.9-6.8.6-13.5-.4-20-2-8.3-2-16.5-4.4-24.8-6.6-1-.1-2-.2-3.6-.6zm217.2 25.2c-.1-8.1 3.3-13 11.2-15.1 3.3-.9 6.7-.4 9.4 1.6 3.2 2.4 6.2 5.2 8.8 8.2 2.5 2.9 4.4 6.2 6.6 9.4 3.2 4.6 2.6 9.3 0 13.7-4.4 7.8-14.6 9.9-21.9 4.7-5-3.6-9.1-8.1-12-13.4-1.4-2.7-1.8-5.9-2.6-8.8.2-.2.4-.3.5-.3zm42.8-36.5c2.7-.1 5.1.8 7 2.6 1.4 1.3 2.9 2.7 3.8 4.4 3 5.9 5.9 11.9 8.7 18 1.9 4.1.8 8-2.2 11.1-1.7 1.7-3.7 3.2-5.8 4.4-4.4 2.3-8.6 1.8-12.3-1.7-6.2-5.8-10.7-12.8-13-21-2.5-9 4.3-17.6 13.8-17.8zm-46.8 83.9c-.5 0-1 .1-1.5 0-3-.6-6.7 0-8.5-2.9-3.7-5.8-6.7-12-2.7-18.9 1.5-2.6 3.8-4.9 6-7.1 1.8-1.8 4.3-1.6 6.5-.9 7.2 2.5 12.6 7.3 16.3 13.8 2 3.6.8 7.2-1.8 10.2-3.8 4.2-8.8 5.6-14.3 5.8zm80.3-91.9c2.1 2.5 2.8 5 3 7.6.5 7.1-4 14.3-10.6 16.9-1.3.5-2.1.4-2.5-1-.4-1.3-1-2.5-1.4-3.7-2.1-6-1.1-10.3 3.7-14.4 2.4-2 5.1-3.6 7.8-5.4z"/></svg>