<svg id="Layer_1" xmlns="http://www.w3.org/2000/svg" viewBox="0 0 997.8 471.3"><style>.st0{fill:#E7E513;} .st1{fill:#FFFFFF;} .st2{fill:#B4BC35;}</style><path id="_x34_hZ0km.tif_1_" class="st0" d="M534.9 14.3c19.6 0 39.2 0 58.7.1 1.7 0 2.1-.7 2-2.2-.1-4 0-8.1 0-12.2h176.2v12.2c0 1.5.3 2.3 2 2.2 18.7-.1 37.3-.1 56-.1v15.9c-.1.4-.3.9-.4 1.3-1.2 11.6-3.2 23.1-6.9 34.2-5.7 16.9-14.4 32-29.1 43.7-3.7 2.9-7.8 5.4-12.1 7.2-12.4 5.4-25.2 7.7-38.5 6.6-2.2-.2-3.8.1-5.3 2.2-9.2 12-20 22.1-34.3 27.8-1.6.7-2.1 1.6-2.1 3.4.1 13.2.1 26.3 0 39.5 0 .1.1.2.2.2 13-.1 26-.1 39-.1h3v2.9c0 7 .1 14 0 21 0 2 .6 2.6 2.5 2.5 3.7-.1 7.4 0 11.3 0V237H610.5v-14.4c3.9 0 7.6-.1 11.3 0 2 .1 2.5-.7 2.5-2.5-.1-5.4 0-10.9 0-16.3v-7.5h42.3c-.1-13.3-.1-26.6 0-40 0-1.7-.7-2.5-2.1-3.1-3.2-1.5-6.4-2.9-9.4-4.7-9.9-5.8-17.8-13.7-24.7-22.8-1.7-2.2-3.3-2.8-5.8-2.5-8.9 1-17.7-.1-26.3-2.4-19.2-5-33.3-16.8-43.4-33.6-8.4-13.8-12.9-29-15.3-44.9-1.6-9.3-2.5-18.8-4.7-28zm81 90.3c.1-.3.2-.5.3-.8-.3-.7-.6-1.3-.9-2-2.8-6.5-6-12.8-8.4-19.4-5.5-15-8.2-30.7-9.8-46.6-.2-1.9-.8-2.4-2.7-2.4-11.4.1-22.9 0-34.3 0h-2.3c0 .9-.1 1.5 0 2.1 1.6 13.4 5 26.2 11.3 38.2 7.1 13.6 17.2 23.7 32.3 28 4.6 1.4 9.7 2 14.5 2.9zm194.3-70.7c-.6-.2-.8-.4-1.1-.4h-36.9c-.6 0-1.5 1-1.6 1.6-.6 3.8-1 7.7-1.5 11.6-2.1 15.1-5.6 29.9-11.7 44-1.9 4.5-4.1 8.8-6.1 13.2.2.2.4.4.5.3 9.3-.4 18.2-2.6 26.2-7.4 11.2-6.9 18.5-17.1 23.4-29.1 2.6-6.4 4.5-13 6.3-19.7 1.2-4.6 1.7-9.4 2.5-14.1z"/><path class="st1" d="M199.7 179h-31l6.1-36.8h31l5.2-29.1h-30.4l6.1-36.8h30.4L227.8 15h41.1l-10.6 61.3h33.1L302.1 15h41.1l-10.8 61.3h32.2l-6.1 36.8h-32.2l-5.2 29.1h31.6l-6.1 36.8H315l-9.5 55.2h-41.1l9.5-55.2h-33.1l-9.5 55.2h-41.1l9.5-55.2zm80.3-36.8l5.2-29.1h-33.1l-5.2 29.1H280zm110.7 46h46.6V96.8c0-8.3.3-16.9.3-16.9h-.6s-2.8 6.1-8.6 11.7l-13.2 12-31-33.1L443.4 15h46.3v173.2h46.9v46H390.7v-46zM127.9 297.3c10 0 15.2 5.5 15.2 5.5l-2.9 4.4s-4.8-4.5-12-4.5c-9.3 0-15.4 7.1-15.4 15.9 0 8.9 6.2 16.5 15.4 16.5 7.8 0 12.9-5.4 12.9-5.4l3.1 4.2s-5.7 6.6-16.2 6.6c-12.5 0-21.3-9.6-21.3-21.8.1-12.2 9.1-21.4 21.2-21.4zm42.5 0c12 0 21.3 9.3 21.3 21.2 0 12.3-9.3 21.8-21.3 21.8s-21.4-9.6-21.4-21.8c0-11.9 9.4-21.2 21.4-21.2zm0 37.7c8.5 0 15.3-7.1 15.3-16.5 0-9.1-6.8-15.9-15.3-15.9s-15.4 6.8-15.4 15.9c0 9.4 6.9 16.5 15.4 16.5zm29.9-37h5.8v36.6h18.6v5.1h-24.5V298h.1zm31.2 0h5.8v36.6h18.6v5.1h-24.5V298h.1zm31.2 0h24.2v5.1h-18.3v13h14.8v5.1h-14.9v13.4h19.3v5.1h-25.2V298h.1zm51.9-.7c10 0 15.2 5 15.2 5l-2.9 4.4s-4.7-4.1-11.7-4.1c-9.8 0-15.7 7.1-15.7 16 0 9.7 6.6 16.3 15.3 16.3 7.2 0 11.8-5.2 11.8-5.2v-6h-6.8v-5.1h12.1v20.9h-5.1v-2.6c0-.9.1-1.8.1-1.8h-.1s-4.5 5.1-12.8 5.1c-11.2 0-20.5-8.8-20.5-21.6-.1-11.8 9-21.3 21.1-21.3zm26.4.7h24.2v5.1h-18.3v13h14.9v5.1h-14.9v13.4h19.3v5.1H341V298zm48.9 0h5.8l18.5 27.1c1.5 2.2 3.5 6 3.5 6h.1s-.4-3.7-.4-6V298h5.8v41.6h-5.7l-18.6-27c-1.5-2.3-3.5-6.1-3.5-6.1h-.1s.4 3.7.4 6.1v27h-5.8V298zm65.3 29.7h-15.7l-4.1 12h-6l15-41.6h6.1l15 41.6h-6.1l-4.2-12zm-7.9-23.9s-.9 3.8-1.6 5.9l-4.7 13.2h12.6l-4.6-13.2c-.7-2.1-1.6-5.9-1.6-5.9h-.1zm30.6-.7h-14.3V298H498v5.1h-14.3v36.6h-5.8v-36.6zM504 298h5.8v41.6H504V298zm35.7-.7c12 0 21.3 9.3 21.3 21.2 0 12.3-9.3 21.8-21.3 21.8s-21.4-9.6-21.4-21.8c0-11.9 9.4-21.2 21.4-21.2zm0 37.7c8.5 0 15.3-7.1 15.3-16.5 0-9.1-6.8-15.9-15.3-15.9s-15.4 6.8-15.4 15.9c0 9.4 6.9 16.5 15.4 16.5zm29.8-37h5.8l18.5 27.1c1.5 2.2 3.5 6 3.5 6h.1s-.4-3.7-.4-6V298h5.8v41.6h-5.7l-18.6-27c-1.5-2.3-3.5-6.1-3.5-6.1h-.1s.4 3.7.4 6.1v27h-5.8V298zm69.4 0l8.1 30.5c.6 2.3.9 4.4.9 4.4h.1s.2-2.2.8-4.4l7.7-30.5h6l-10.9 41.6h-6.8l-7.2-27c-.7-2.7-1.2-5.9-1.2-5.9h-.1s-.5 3.2-1.2 5.9l-7.2 27h-6.8L610.5 298h6l7.4 30.5c.5 2.2.8 4.4.8 4.4h.1s.3-2.1.9-4.4l8.1-30.5h5.1zm31.2 0h5.8v41.6h-5.8V298zm17.1 0H701c12.7 0 21.1 7.6 21.1 20.8 0 13.2-8.4 20.9-21.1 20.9h-13.8V298zm13.4 36.6c9.4 0 15.5-5.5 15.5-15.8 0-10.2-6.2-15.7-15.5-15.7h-7.5v31.5h7.5zm30.2-36.6H755v5.1h-18.3v13h14.9v5.1h-14.9v13.4H756v5.1h-25.2V298zm49 0h22.9v5.1h-17.1v13.7h14.6v5.1h-14.6v17.8h-5.8V298zm49.3-.7c12 0 21.3 9.3 21.3 21.2 0 12.3-9.3 21.8-21.3 21.8s-21.4-9.6-21.4-21.8c0-11.9 9.3-21.2 21.4-21.2zm0 37.7c8.5 0 15.3-7.1 15.3-16.5 0-9.1-6.8-15.9-15.3-15.9s-15.4 6.8-15.4 15.9c0 9.4 6.9 16.5 15.4 16.5zm29.8-37h12.7c4.4 0 6.2.4 7.8.9 4.2 1.6 7 5.8 7 11.3 0 5.3-2.9 9.8-7.5 11.3v.1s.5.5 1.2 1.9l8.8 16.2h-6.6l-8.8-16.6h-8.9v16.6h-5.8V298h.1zm14.2 20c4.5 0 7.4-2.9 7.4-7.5 0-3.1-1.2-5.2-3.3-6.4-1.1-.6-2.5-.9-5.7-.9h-6.7v14.9h8.3v-.1zM21.2 368.1c10 0 15.2 5.5 15.2 5.5l-2.9 4.4s-4.8-4.5-12-4.5c-9.3 0-15.4 7.1-15.4 15.9 0 8.9 6.2 16.5 15.4 16.5 7.8 0 12.9-5.4 12.9-5.4l3.1 4.2s-5.7 6.6-16.2 6.6C8.8 411.3 0 401.7 0 389.5c.1-12.2 9.1-21.4 21.2-21.4zm24.3.7h12.7c4.4 0 6.2.4 7.8.9 4.2 1.6 7 5.8 7 11.3 0 5.3-2.9 9.8-7.5 11.3v.1s.5.5 1.2 1.9l8.8 16.2h-6.6l-8.8-16.6h-8.9v16.6h-5.8v-41.7h.1zm14.2 20c4.5 0 7.4-2.9 7.4-7.5 0-3.1-1.2-5.2-3.3-6.4-1.1-.6-2.5-.9-5.7-.9h-6.7v14.9l8.3-.1zm23.6-20h5.8v41.6h-5.8v-41.6zm26 5.1H95v-5.1h34.4v5.1h-14.3v36.6h-5.8v-36.6zm26.1-5.1h5.8v41.6h-5.8v-41.6zm35.5-.7c10 0 15.2 5.5 15.2 5.5l-2.9 4.4s-4.8-4.5-12-4.5c-9.3 0-15.4 7.1-15.4 15.9 0 8.9 6.2 16.5 15.4 16.5 7.8 0 12.9-5.4 12.9-5.4l3.1 4.2s-5.7 6.6-16.2 6.6c-12.5 0-21.3-9.6-21.3-21.8s9.1-21.4 21.2-21.4zm44.8 30.3H200l-4.1 12h-6l15-41.6h6.1l15 41.6h-6.1l-4.2-12zm-7.8-23.9s-.9 3.8-1.6 5.9l-4.7 13.2h12.6l-4.6-13.2c-.7-2.1-1.6-5.9-1.7-5.9zm24.2-5.7h5.8v36.5h18.6v5.1H232v-41.6h.1zm55.3 5.1h-14.3v-5.1h34.4v5.1h-14.3v36.6h-5.8v-36.6zm26-5.1h5.8v18.3h21.6v-18.3h5.8v41.6h-5.8v-18.3h-21.6v18.3h-5.8v-41.6zm44.6 0h5.8v41.6H358v-41.6zm17.2 0h5.8l18.5 27.1c1.5 2.2 3.5 6 3.5 6h.1s-.4-3.7-.4-6v-27.1h5.8v41.6h-5.7l-18.6-27c-1.5-2.3-3.5-6.1-3.5-6.1h-.1s.4 3.7.4 6.1v27h-5.8v-41.6zm44.6 0h5.8v17.5h6.2l10.5-17.5h6.4l-12.1 19.8v.1l12.9 21.8h-6.6l-11.1-19.2h-6.2v19.1h-5.8v-41.6zm36.7 0h5.8v41.6h-5.8v-41.6zm17.2 0h5.8l18.5 27.1c1.5 2.2 3.5 6 3.5 6h.1s-.4-3.7-.4-6v-27.1h5.8v41.6h-5.7l-18.6-27c-1.5-2.3-3.5-6.1-3.5-6.1h-.1s.4 3.7.4 6.1v27h-5.8v-41.6zm63.1-.7c10 0 15.2 5 15.2 5l-2.9 4.4s-4.7-4.1-11.7-4.1c-9.8 0-15.7 7.1-15.7 16 0 9.7 6.6 16.3 15.3 16.3 7.2 0 11.8-5.2 11.8-5.2v-6H542v-5.1h12.1v20.9H549v-2.6c0-.9.1-1.8.1-1.8h-.1s-4.5 5.1-12.8 5.1c-11.2 0-20.5-8.8-20.5-21.6-.2-11.9 8.9-21.3 21.1-21.3zm41.5.7h5.8v41.6h-5.8v-41.6zm19.2 0h6.1l9.6 22.5c.9 2.3 2.1 5.6 2.1 5.6h.1s1.1-3.3 2.1-5.6l9.6-22.5h6.1l3.4 41.6h-5.8l-2.1-26.2c-.2-2.5-.1-6.1-.1-6.1h-.1s-1.2 3.8-2.2 6.1L618 403h-5.2l-8.3-18.8c-.9-2.2-2.2-6.3-2.2-6.3h-.1s.1 3.7-.1 6.3l-2 26.2h-5.8l3.2-41.6zm49 0h15.2c7.6 0 13.1 5.1 13.1 13s-5.5 13.2-13.1 13.2h-9.4v15.4h-5.8v-41.6zm14.3 21.2c5 0 8.1-3.1 8.1-8.1s-3.1-8-8-8h-8.5V390h8.4zm21.5-21.2H695c4.4 0 6.2.4 7.8.9 4.2 1.6 7 5.8 7 11.3 0 5.3-2.9 9.8-7.5 11.3v.1s.5.5 1.2 1.9l8.8 16.2h-6.6l-8.8-16.6H688v16.6h-5.8l.1-41.7zm14.2 20c4.5 0 7.4-2.9 7.4-7.5 0-3.1-1.2-5.2-3.3-6.4-1.1-.6-2.5-.9-5.7-.9h-6.7v14.9l8.3-.1zm42.1-20.7c12 0 21.3 9.3 21.3 21.2 0 12.3-9.3 21.8-21.3 21.8s-21.4-9.6-21.4-21.8c0-12 9.4-21.2 21.4-21.2zm0 37.7c8.5 0 15.3-7.1 15.3-16.5 0-9.1-6.8-15.9-15.3-15.9s-15.4 6.8-15.4 15.9c.1 9.4 7 16.5 15.4 16.5zm24.3-37h6.3l10.3 29.4c.8 2.2 1.6 5.7 1.6 5.7h.1s.8-3.5 1.6-5.7l10.4-29.4h6.2l-15.3 41.6h-5.8l-15.4-41.6zm42.6 0h24.2v5.1h-18.3v13h14.9v5.1h-14.9v13.3h19.3v5.1h-25.2v-41.6zm35.9 0h6.1l9.6 22.5c.9 2.3 2.1 5.6 2.1 5.6h.1s1.1-3.3 2.1-5.6l9.6-22.5h6.1l3.4 41.6h-5.8l-2.1-26.2c-.2-2.5-.1-6.1-.1-6.1h-.1s-1.2 3.8-2.2 6.1l-8.3 18.8h-5.2l-8.3-18.8c-.9-2.2-2.2-6.3-2.2-6.3h-.1s.1 3.7-.1 6.3l-2 26.2h-5.8l3.2-41.6zm48.9 0h24.2v5.1h-18.3v13h14.9v5.1h-14.9v13.3h19.3v5.1h-25.2v-41.6zm33.8 0h5.8l18.5 27.1c1.5 2.2 3.5 6 3.5 6h.1s-.4-3.7-.4-6v-27.1h5.8v41.6h-5.7l-18.6-27c-1.5-2.3-3.5-6.1-3.5-6.1h-.1s.4 3.7.4 6.1v27h-5.8v-41.6zm53.6 5.1h-14.3v-5.1h34.4v5.1h-14.3v36.6h-5.8v-36.6z"/><path class="st2" d="M655 148.5c3 1.8 6.2 3.2 9.4 4.7 1.4.7 2.1 1.4 2.1 3.1-.1 13.3-.1 26.6 0 40-13.2-.1-26.3 0-39.5 0h-2.8v7.5c0 5.4-.1 10.9 0 16.3 0 1.9-.5 2.6-2.5 2.5-3.7-.2-7.4 0-11.3 0V237h146.7v-14.4c-3.9 0-7.6-.1-11.3 0-1.9.1-2.5-.5-2.5-2.5.1-7 0-14 0-21v-2.9h-3c-13 0-26-.1-39 .1-.1 0-.2-.1-.2-.2.1-13.2.1-26.3 0-39.5 0-1.7.5-2.7 2.1-3.4 14.3-5.7 25.1-15.8 34.3-27.8 1.6-2.1 3.1-2.4 5.3-2.2 13.3 1.1 26.1-1.2 38.5-6.6 4.3-1.9 8.4-4.3 12.1-7.2 14.7-11.6 23.5-26.7 29.1-43.7 3.7-11.1 5.7-22.6 6.9-34.2 0-.4.3-.9.4-1.3V14.3c-17 0-40.2 0-57.2.1M807.7 48c-1.8 6.6-3.7 13.3-6.3 19.7-4.8 12-12.1 22.2-23.4 29.1-8 4.9-16.8 7-26.2 7.4-.1 0-.2-.2-.5-.3 2-4.4 4.2-8.7 6.1-13.2 6-14.1 9.5-28.9 11.7-44 .5-3.8.9-7.7 1.5-11.6.1-.6 1-1.6 1.6-1.6 12.3-.1 24.6-.1 36.9 0 .2 0 .4.1 1.1.4-.8 4.7-1.3 9.5-2.5 14.1z"/><path class="st0" d="M128.1 463.6h-9.6l-2.5 7.3h-3.6l9.1-25.4h3.7l9.1 25.4h-3.7l-2.5-7.3zm-4.8-14.6s-.6 2.3-1 3.6l-2.8 8h7.7l-2.8-8c-.4-1.3-1-3.6-1.1-3.6zm14.9 16.3s2.7 2.7 6.5 2.7c2.4 0 4.4-1.3 4.4-3.7 0-5.5-12.3-4.3-12.3-12.1 0-4 3.4-7.1 8.2-7.1 4.7 0 7.2 2.6 7.2 2.6l-1.6 2.9s-2.3-2.2-5.6-2.2c-2.7 0-4.6 1.7-4.6 3.7 0 5.2 12.3 3.8 12.3 12.1 0 3.9-3 7.1-8 7.1-5.4 0-8.4-3.3-8.4-3.3l1.9-2.7zm28.8-19.8h7.8c2.7 0 3.8.2 4.7.6 2.6 1 4.3 3.5 4.3 6.9 0 3.2-1.8 6-4.6 6.9v.1s.3.3.8 1.1l5.4 9.8h-4l-5.4-10.1h-5.4v10.1H167v-25.4zm8.6 12.2c2.8 0 4.5-1.8 4.5-4.6 0-1.9-.7-3.2-2-3.9-.7-.4-1.5-.6-3.5-.6h-4.1v9.1h5.1zm14.4-12.2h14.7v3.1h-11.2v7.9h9.1v3.1h-9.1v8.2h11.9v3.1h-15.3v-25.4h-.1zm20.6 0h9.3c4.6 0 8 3.1 8 7.9 0 4.8-3.3 8-8 8h-5.7v9.4h-3.6v-25.3zm8.7 12.9c3.1 0 4.9-1.9 4.9-5s-1.9-4.9-4.9-4.9h-5.2v9.8h5.2v.1zm24.5-13.3c7.3 0 13 5.6 13 12.9 0 7.5-5.7 13.3-13 13.3s-13-5.8-13-13.3c-.1-7.3 5.6-12.9 13-12.9zm0 22.9c5.2 0 9.3-4.3 9.3-10 0-5.5-4.2-9.7-9.3-9.7-5.2 0-9.4 4.2-9.4 9.7 0 5.7 4.2 10 9.4 10zm18.2-22.5h7.8c2.7 0 3.8.2 4.7.6 2.6 1 4.3 3.5 4.3 6.9 0 3.2-1.8 6-4.6 6.9v.1s.3.3.8 1.1l5.4 9.8h-4l-5.4-10.1h-5.4v10.1H262v-25.4zm8.6 12.2c2.8 0 4.5-1.8 4.5-4.6 0-1.9-.7-3.2-2-3.9-.7-.4-1.5-.6-3.5-.6h-4.1v9.1h5.1zm19.8-9.1h-8.7v-3.1h20.9v3.1h-8.7v22.3h-3.5v-22.3zm15.9-3.1H321v3.1h-11.2v7.9h9.1v3.1h-9.1v8.2h11.8v3.1h-15.3v-25.4zm20.6 0h8.4c7.8 0 12.9 4.6 12.9 12.6s-5.1 12.7-12.9 12.7h-8.4v-25.3zm8.2 22.3c5.7 0 9.4-3.4 9.4-9.6 0-6.2-3.8-9.6-9.4-9.6h-4.6v19.2h4.6zm27.7-22.3h3.6v25.4h-3.6v-25.4zm10.4 0h3.5L388 462c.9 1.4 2.1 3.7 2.1 3.7h.1s-.3-2.3-.3-3.7v-16.5h3.6v25.4H390l-11.3-16.5c-.9-1.4-2.1-3.7-2.1-3.7h-.1s.3 2.3.3 3.7v16.5h-3.6v-25.4zm41.9 3.1h-8.7v-3.1h20.9v3.1h-8.7v22.3H415l.1-22.3zm15.9-3.1h3.6v11.1h13.1v-11.1h3.6v25.4h-3.6v-11.1h-13.1v11.1H431v-25.4zm27.2 0h14.7v3.1h-11.2v7.9h9.1v3.1h-9.1v8.2h11.8v3.1h-15.3v-25.4zm44.9 0l5 18.6c.4 1.4.5 2.7.5 2.7h.1s.1-1.3.5-2.7l4.7-18.6h3.7l-6.6 25.4h-4.1l-4.4-16.5c-.4-1.6-.8-3.6-.8-3.6h-.1s-.3 2-.8 3.6l-4.4 16.5h-4.1l-6.5-25.4h3.7l4.5 18.6c.3 1.4.5 2.7.5 2.7h.1s.2-1.3.5-2.7l5-18.6h3zm30.8 18.1h-9.6l-2.5 7.3h-3.7l9.1-25.4h3.7l9.1 25.4h-3.6l-2.5-7.3zm-4.8-14.6s-.6 2.3-1 3.6l-2.8 8h7.7l-2.8-8c-.5-1.3-1-3.6-1.1-3.6zm14.8-3.5h3.6v22.3h11.4v3.1H544l-.1-25.4zm19 0h3.6v22.3h11.4v3.1H563l-.1-25.4zm28.3 19.8s2.7 2.7 6.5 2.7c2.4 0 4.4-1.3 4.4-3.7 0-5.5-12.3-4.3-12.3-12.1 0-4 3.4-7.1 8.2-7.1 4.7 0 7.2 2.6 7.2 2.6l-1.6 2.9s-2.3-2.2-5.6-2.2c-2.7 0-4.6 1.7-4.6 3.7 0 5.2 12.3 3.8 12.3 12.1 0 3.9-3 7.1-8 7.1-5.4 0-8.4-3.3-8.4-3.3l1.9-2.7zm25-16.7h-8.7v-3.1h20.9v3.1h-8.7v22.3h-3.6l.1-22.3zm15.9-3.1h7.8c2.7 0 3.8.2 4.7.6 2.6 1 4.3 3.5 4.3 6.9 0 3.2-1.8 6-4.6 6.9v.1s.3.3.8 1.1l5.4 9.8h-4l-5.4-10.1h-5.4v10.1h-3.6v-25.4zm8.6 12.2c2.8 0 4.5-1.8 4.5-4.6 0-1.9-.7-3.2-2-3.9-.7-.4-1.5-.6-3.5-.6h-4.1v9.1h5.1zm14.4-12.2h14.7v3.1h-11.2v7.9h9.1v3.1h-9.1v8.2h11.8v3.1h-15.3v-25.4zm20.6 0h14.7v3.1h-11.2v7.9h9.1v3.1h-9.1v8.2H691v3.1h-15.3v-25.4zm26 3.1H693v-3.1h20.9v3.1h-8.7v22.3h-3.6l.1-22.3zm22.8 13.7h3.5v1.1c0 3.4 2 4.6 4 4.6s4-1.1 4-4.5v-14.9h-6.4v-3.1h10v18.1c0 5.5-3.8 7.7-7.5 7.7s-7.5-2.3-7.5-7.7l-.1-1.3zm33-17.2c7.3 0 13 5.6 13 12.9 0 7.5-5.7 13.3-13 13.3s-13-5.8-13-13.3c-.1-7.3 5.7-12.9 13-12.9zm0 22.9c5.2 0 9.3-4.3 9.3-10 0-5.5-4.2-9.7-9.3-9.7-5.2 0-9.4 4.2-9.4 9.7 0 5.7 4.2 10 9.4 10zm17.8-22.5h3.6v16.4c0 3.9 2.5 6.1 6.4 6.1s6.5-2.3 6.5-6.2v-16.3h3.6v16.4c0 5.6-4.1 9.4-10 9.4s-10-3.8-10-9.4l-.1-16.4zm26.6 0h7.8c2.7 0 3.8.2 4.7.6 2.6 1 4.3 3.5 4.3 6.9 0 3.2-1.8 6-4.6 6.9v.1s.3.3.8 1.1l5.4 9.8h-4l-5.4-10.1h-5.5v10.1h-3.6l.1-25.4zm8.6 12.2c2.8 0 4.5-1.8 4.5-4.6 0-1.9-.7-3.2-2-3.9-.7-.4-1.5-.6-3.5-.6h-4.1v9.1h5.1zm14.4-12.2h3.5l11.3 16.5c.9 1.4 2.1 3.7 2.1 3.7h.1s-.3-2.3-.3-3.7v-16.5h3.6v25.4h-3.5l-11.3-16.5c-.9-1.4-2.1-3.7-2.1-3.7h-.1s.3 2.3.3 3.7v16.5h-3.6v-25.4zm39.8 18.1h-9.6l-2.5 7.3h-3.7l9.1-25.4h3.7l9.1 25.4h-3.7l-2.4-7.3zm-4.8-14.6s-.6 2.3-1 3.6l-2.8 8h7.7l-2.8-8c-.5-1.3-1-3.6-1.1-3.6zm14.8-3.5h3.6v22.3h11.4v3.1h-14.9l-.1-25.4z"/></svg>