<svg id="Layer_1" data-name="Layer 1" xmlns="http://www.w3.org/2000/svg" viewBox="0 0 375.1 94.66"><defs><style>.cls-1{fill:#004f39;}</style></defs><title>Artboard 1</title><path class="cls-1" d="M91.8 79.46a25.81 25.81 0 0 1 .4-4 12.62 12.62 0 0 1-3 .3c-1.2 0-2.3-.1-3.5-.1v1.1c1.9 0 2.1.8 2.1 3.5v6.6c0 1.4-.1 2.4-.1 3.2a8.14 8.14 0 0 1-4.6 1.7c-1.6 0-3.7-.8-3.7-4.6v-4.5a63.66 63.66 0 0 1 .3-7.1 8.93 8.93 0 0 1-2.9.3c-1.1 0-2.1-.1-3.2-.1v1.1c1.5 0 1.9.7 1.9 2.6 0 2.8-.1 5.5-.1 8.6 0 4.1 1.5 6.6 5.2 6.6 2.9 0 4.9-1.4 7.2-3.2 0 .6-.1 1.2-.1 1.9a5.38 5.38 0 0 0 .1.8h5.9v-.8c-1.8-.2-1.8-.8-1.8-6.4l-.1-7.5zm27 14.8a7.57 7.57 0 0 1 1.5-.1c.6 0 1 .1 1.6.1 0-.6-.1-1.2-.1-1.9 0-4 .3-8 .6-12 .1-1.7.3-3.7 2.3-3.7v-1c-1.1.1-2.1.1-3.2.1s-2.4-.1-3.7-.1v1c2.7 0 2.8 1 2.8 10.1V90h-.1l-5.1-6.3c-1.9-2.4-4.6-5.5-5.7-8.3a13.43 13.43 0 0 1-3.5.3c-.9 0-1.9-.1-2.8-.1v1a2.3 2.3 0 0 1 2.4 1.7v5.5c0 7.3-.6 9.3-2.8 9.4v1c1.1-.1 2.2-.1 3.3-.1s2.3.1 3.5.1v-1c-2.5-.2-2.6-.9-2.6-10.1v-3h.1zm23.5-18.6c-1.4.1-2.7.1-4.1.1s-2.8-.1-4.1-.1v1c2 .2 2.2.6 2.2 5.5v5.4c0 4.6-.1 5.5-2.2 5.7v1c1.4-.1 2.7-.1 4-.1 1.5 0 2.8.1 4.3.1v-1c-1.9-.1-2.1-.3-2.1-4.1v-8c0-4 .2-4.4 2.1-4.4l-.1-1.1zm22.7 1c1 0 1.7.1 1.7 1.1 0 2.1-3 11-3.9 13.4-.9-1.8-5.1-12.2-5.1-13.3s.8-1.1 1.7-1.2v-1c-1.3.1-2.7.1-4 .1-1.5 0-2.9-.1-4.4-.1v1c1.2.1 1.5.3 1.9 1.4.9 2 5.5 12.1 6.6 16.2a11 11 0 0 1 1.8-.2c.7 0 1.3.1 2 .1.3-2 4.4-11.4 6.3-15.7.2-.5.4-1.8 2-1.8v-1c-1 .1-2.1.1-3.1.1s-2.3-.1-3.4-.1v1h-.1zm15 17.6c1.7-.1 3.4-.1 5-.1 3.2 0 6.7.3 7.5.3 1.2 0 1.7 0 1.9-.5a22.1 22.1 0 0 1 1.2-4.2l-1-.2c-.4 3.2-4.5 3.5-6.9 3.5h-1.5c-.1-1.2-.1-2.5-.1-3.7v-3.7a31.58 31.58 0 0 1 3.5-.2 33.33 33.33 0 0 1 3.5.1l.7-1.6a22.18 22.18 0 0 1-3.7.3 35.28 35.28 0 0 1-3.9-.2c0-2.3.1-6.4.1-7h1.4c2 0 5.6.6 5.6 2.6a2 2 0 0 1-.1.8h1a40.32 40.32 0 0 1 .6-4.7 13.52 13.52 0 0 0-2.3-.1c-2.5 0-5 .3-7.5.3-1.7 0-3.2-.1-4.6-.1v1c1.8 0 2 .4 2 4.8v6.8c0 4.4-.3 5-2.1 5l-.3.8zm31.9-11.7c0-3.8.1-5.1.1-5.6a12.25 12.25 0 0 1 1.9-.2 4.13 4.13 0 0 1 4.2 4.3c0 2.6-1.5 3.9-4 3.9-.7 0-1.6-.1-2.3-.1zm1.8 3.6a83.89 83.89 0 0 1 5 8.1 29.08 29.08 0 0 1 3-.1 28.1 28.1 0 0 1 2.9.1v-.9a3 3 0 0 1-1-.2c-1.4-.8-5-6.3-6-7.9 2.1-1.1 4.7-2.9 4.7-5.5 0-2.9-2.6-4.1-6.4-4.1-2.4 0-4.8.3-7.1.3-.9 0-1.9-.1-2.7-.1v1c1.7.1 1.9.3 1.9 5v7c0 4.1-.4 4.4-2.2 4.6v1c1.4-.1 2.8-.1 4.2-.1 1.2 0 2.5.1 3.7.1v-1c-1.3-.1-1.8-.2-1.8-3.2v-3.9l1.8-.2zm21 2.1v2.8a10.32 10.32 0 0 1-.4 3 1.72 1.72 0 0 1 .8-.1c1 0 3.1.5 5.9.5 4.6 0 7.9-1.7 7.9-5.5 0-6.8-10.3-4.4-10.3-9.9 0-2 1.5-2.6 3.4-2.6a4 4 0 0 1 4.3 4.2h1.1v-2.6a8.42 8.42 0 0 1 .4-2.7 3.06 3.06 0 0 1-1.5.3c-1.5 0-2.8-.3-4.4-.3-3.9 0-7.4 1.5-7.4 5.5 0 6.4 10.3 4.7 10.3 9.4 0 2.3-1.2 3.2-3.2 3.2s-5.8-.9-5.8-5.1l-1.1-.1zm32.9-12.6c-1.4.1-2.7.1-4.1.1s-2.8-.1-4.1-.1v1c2 .2 2.2.6 2.2 5.5v5.4c0 4.6-.1 5.5-2.2 5.7v1c1.4-.1 2.7-.1 4-.1 1.5 0 2.8.1 4.3.1v-1c-1.9-.1-2.1-.3-2.1-4.1v-8c0-4 .2-4.4 2.1-4.4l-.1-1.1zm13.3 18.6c1.6-.1 3.2-.1 4.8-.1s2.9.1 4.4.1v-1c-2.2 0-2.4-.5-2.4-2.8V81c0-1.1.1-2.3.1-3.4h2.1c1.5 0 3 .3 3 1.9v1.2h1a23.23 23.23 0 0 1 .7-5.2 41.94 41.94 0 0 1-5 .3h-6.3c-2.3 0-4.5-.1-5.5-.2a37.39 37.39 0 0 1-.6 5.3h1c.3-2.6 2.1-3.2 4.5-3.2h1c.1 1.7.1 3.7.1 5.5v2.9c0 6.7-.3 6.9-2.8 7v1l-.1.2zm29.2-18.6c-1.5.1-2.8.1-4.3.1-1.2 0-2.6-.1-3.8-.1v1c1.3 0 1.7.7 2.2 1.5l5.9 8.5v3.9c0 1.7-.3 2.7-2.5 2.7v1c1.5-.1 2.9-.1 4.4-.1s2.8.1 4.3.1v-1c-1.5 0-2.2-.2-2.2-1.4v-6l5.2-7.7c.6-.9 1-1.5 2.2-1.5v-1c-1 .1-2 .1-3 .1s-2.1-.1-3.1-.1v1c.8 0 1.7.1 1.7.9 0 1.2-2.1 4.4-3.5 7.2-1.4-2.3-4.6-5.9-4.6-7.3 0-.4.2-.8 1.4-.8l-.3-1zm-53.5-17.4c0 1.9.1 3.6.1 5.3a23.69 23.69 0 0 1-.8 5.7 4.2 4.2 0 0 1 1.4-.3c1.8 0 5.8 1 11 1 8.7 0 14.8-3.2 14.8-10.4 0-12.6-19.3-8.1-19.3-18.6 0-3.7 2.8-4.8 6.3-4.8 4.7 0 7.9 3 8 7.9h2.1c-.1-1.5-.1-3.3-.1-4.8a17.4 17.4 0 0 1 .8-5 7.22 7.22 0 0 1-2.7.5c-2.8 0-5.2-.6-8.3-.6-7.4 0-13.7 2.8-13.7 10.2 0 11.9 19.3 8.8 19.3 17.5 0 4.4-2.3 6-6 6-3.9 0-10.8-1.7-10.8-9.5l-2.1-.1zm46.1 6.4a4 4 0 0 1-2.7.9c-2.5 0-3.5-1.7-3.5-7 0-3.7.1-7.4.3-11h2.6c1.1 0 2.2.1 3.3.2a12.66 12.66 0 0 1 .8-3.7 49.34 49.34 0 0 1-6.7.3 35.8 35.8 0 0 1 .7-6.4 40.11 40.11 0 0 1-7.9 2.3 20.79 20.79 0 0 1 .3 4.1h-3v3.2h3c0 4.8-.3 9.5-.3 14.3 0 5.1.8 7.7 5 7.7 2.4 0 6.6-2.2 8.8-3.2l-.7-1.7zm18.4-8.5c0 .8.1 1.7.1 2.6 0 3.7-.8 6-4.8 6-2.6 0-4.2-1.5-4.2-3.9 0-1.3.3-2.3 1.7-2.7l7.2-2zm9.5 9.5a5.21 5.21 0 0 1-1.4.2c-1.5 0-1.7-3.2-1.7-5.8 0-3.5.5-8.2.5-10.6 0-3.3-1.3-5.7-4.7-5.7a17.5 17.5 0 0 0-5.6.8l-10.6 3.3c0 2.3.1 5.3 2.8 5.3 2.5 0 3.9-1.5 3.9-4.4v-1.1a8 8 0 0 1 2.7-.3c3.4 0 4.8 1.1 4.8 5v1.9l-14.8 4.8c-.8.6-1.1 2.1-1.1 3.7 0 6 4.6 6.9 7 6.9l8.9-4.9v1.3a6.9 6.9 0 0 0 1.1 3.5 50.9 50.9 0 0 1 8.5-2.3l-.3-1.6zm18.7-1a4 4 0 0 1-2.7.9c-2.5 0-3.5-1.7-3.5-7 0-3.7.1-7.4.3-11h2.6c1.1 0 2.2.1 3.3.2a12.66 12.66 0 0 1 .8-3.7 49.34 49.34 0 0 1-6.7.3 35.8 35.8 0 0 1 .7-6.4 40.11 40.11 0 0 1-7.9 2.3 20.79 20.79 0 0 1 .3 4.1h-3v3.2h3c0 4.8-.3 9.5-.3 14.3 0 5.1.8 7.7 5 7.7 2.4 0 6.6-2.2 8.8-3.2l-.7-1.7zm9.7-12.1c0-2.6 1.1-6.7 4.4-6.7 3.5 0 4.9 2.7 4.9 6.1-1.3.2-5.9.6-6.9.6H359zm15 9.3a8.1 8.1 0 0 1-5 2c-6.4 0-9.9-3.8-9.9-9.9h13a11.19 11.19 0 0 0 2.9-.3 2.82 2.82 0 0 0 .1-.8c0-5.1-3.4-9-9-9-7.4 0-13.9 5-13.9 12.8s5 13 12.7 13c4.6 0 5.8-2.8 10.2-6.4l-1.1-1.4zm-373.9 7c2.7-.1 5.3-.3 8-.3 3 0 5.9.2 8.8.3V67c-4.8-.2-4.8-.4-4.8-13.9v-18a14.53 14.53 0 0 1 3-.3c5 0 8.8 2.8 8.8 9 0 3.9-2.3 8.4-7.8 8.4a9.08 9.08 0 0 1-2.3-.3l.6 1.9a15.86 15.86 0 0 0 3.4.4c7 0 14.4-5.3 14.4-12.2 0-8.4-5.5-10.1-13.3-10.1a50.13 50.13 0 0 0-6.6.5c-2.1.2-4.4.5-6.6.5-2 0-3.7-.3-5.4-.4v2.1c2.3 0 4.1.3 4.1 3v21.1c0 6.2-.3 8.1-4.4 8.1l.1 2.1zm51.1-24.4c1.2 0 2.3.1 2.8 1.4l9.1 22.7h3c-2 4.9-25.2 17.1-25.2 17.1s9.6-1 15.8-4.2c12.8-13.7 17.2-26.2 23.5-38.9-2.1.2-4.1.4-6.2.4a29.66 29.66 0 0 1-4.2-.3v1.9c2.3 0 3 0 3 1.7 0 3.7-3.2 13.7-4.6 17.1a196.63 196.63 0 0 1-7-20.9 13.31 13.31 0 0 1-4.9.6 48.44 48.44 0 0 1-5.3-.3v1.8l.2-.1zm50 19.5c0 2.3-.2 3.2-2.6 3.2v1.5c1.9 0 4-.1 5.9-.1s4.1.1 6.1.1v-1.5c-2.3-.1-2.7-.2-2.7-3.2v-14.3a9.63 9.63 0 0 1 4.8-1.4c3.4 0 3.8 2.3 3.8 5.8v4.1c0 2.6 0 8.1-.6 10.7a51.59 51.59 0 0 1 6.7-.3c1 0 2.1 0 3.2.1v-1.5c-2.3 0-2.6-.2-2.6-4.9 0-4.1.2-8.2.2-12.3 0-4.6-1.2-7.4-5.8-7.4-4.2 0-7 2.7-9.7 5.2-.3-3-2.1-5.2-5.4-5.2-4.1 0-7.1 2.5-9.7 5.4 0-.7.1-1.3.1-2a15.53 15.53 0 0 0-.4-3.7 69.48 69.48 0 0 1-9.7 1.2v1.6c.2 0 .7-.1 1.2-.1 1.4 0 1.9 1.3 1.9 2.5v14c0 4.8-.1 5.4-3.4 5.6v1.5c2.1 0 4.2-.1 6.4-.1s4.2.1 6.2.1v-1.5c-2.3 0-2.5-1-2.5-3.7 0-4.6.1-9.2.2-13.7a10.86 10.86 0 0 1 4.6-1.5c3.5 0 3.8 2.4 3.8 5.5V64zm55.4-8.5c0-6.6-4.1-13.2-13.6-13.2A13.58 13.58 0 0 0 129.1 56c0 7.5 4.7 13.2 13.6 13.2a13.7 13.7 0 0 0 13.9-13.7m-7.5 3.1c0 4.6-1 8.1-4.4 8.1-5 0-8.1-8.5-8.1-14.2 0-3.7.9-8.1 4.3-8.1 4.6.1 8.2 8.4 8.2 14.2m10.1-13.9c2.9.1 3 1.1 3 7 0 3.2-.1 6.3-.1 9.7 0 5.5 2.5 7.9 6.8 7.9 3.9 0 7.4-2.6 9.9-5-.1 1.1-.2 2.1-.2 3.2a13.61 13.61 0 0 0 .2 2.1 64.6 64.6 0 0 1 10.5-1.1v-1.7l-.6.1c-2.6 0-2.7-1.9-2.7-8.9v-3.7a107.35 107.35 0 0 1 .6-11.7 25.15 25.15 0 0 1-5.1.5c-1.7 0-3.5-.1-5.2-.2v1.7c2.7.3 2.8 1 2.8 5.5 0 4.1-.1 8.2-.1 12.3a9.42 9.42 0 0 1-4.8 1.6c-4.6 0-5-2.6-5-6.7 0-4.8.1-9.7.4-14.6a52.71 52.71 0 0 1-5.6.4c-1.6 0-3.2-.1-4.8-.2v1.8zm49.3 19.4a4.47 4.47 0 0 1-2.8.9c-2.6 0-3.7-1.7-3.7-7.3 0-3.9.1-7.7.3-11.5h2.7c1.2 0 2.3.1 3.5.2a11.78 11.78 0 0 1 .9-3.8 53.88 53.88 0 0 1-7 .3 37 37 0 0 1 .7-6.6 44.24 44.24 0 0 1-8.3 2.4 22.28 22.28 0 0 1 .3 4.2h-3.2v3.3h3.2c0 5-.3 9.9-.3 14.9 0 5.3.8 8.1 5.2 8.1 2.6 0 6.9-2.3 9.3-3.4l-.8-1.7zm13.2-13.9c2.1-1 3.4-1.9 5.7-1.9 2.8 0 3.9 1 3.9 3.8v9.7a44 44 0 0 1-.5 7.3 50.37 50.37 0 0 1 5.7-.5c1.4 0 2.8.1 4.2.1v-1.5c-2.6-.1-2.6-.3-2.6-3.5 0-4.1.2-8.1.2-12.2 0-4.5-.3-8.8-6.4-8.8-4 0-6.6 2.5-10.2 5.5v-6.8c0-3.9.3-7.9.5-11.8-3.5 1.2-7.3 1.3-11 1.3v1.5c2.9 0 3.5.5 3.5 4.2v21.1c0 9.2-.2 9.5-3.2 9.5v1.5c2.1-.1 4.4-.1 6.6-.1s4.3.1 6.4.1v-1.5c-2.5 0-2.8-.5-2.8-3.7V50.16z"/><path class="cls-1" d="M49 67.16c-2.1 0-3-.5-3-2.1v-23.9c0-3.9.2-7.9.5-11.8-3.7 1.3-7.3 1.3-11 1.3v1.6c.5 0 1-.1 1.5-.1 1.3 0 2 .8 2 4.3v21.1c0 9.3-.3 9.5-3.2 9.5v1.5c2.1-.1 4.4-.1 6.6-.1s4.4.1 6.6.1v-1.4zm23.6-42.3c30.7 2.3 105.9 2.6 130.6-2.1 28.7-5.5 53.9-8.6 82.6-11.8 26.4-3 52.2.1 80.6 6.6l-11-6.5s-9.4-5.7-16.2-7.8c-21.1-6.6-45.6-2.1-68.2 3.9s-47.6 14.9-76 21.4c-26.3 5.9-50.5 6.6-80.5 5.6s-62-5.7-87-10.7l23.3.3 21.8 1.1z"/><path class="cls-1" d="M72.6 24.86c30.7 2.3 105.9 2.6 130.6-2.1 28.7-5.5 53.9-8.6 82.6-11.8 26.4-3 52.2.1 80.6 6.6l-11-6.5s-9.4-5.7-16.2-7.8c-21.1-6.6-45.6-2.1-68.2 3.9s-47.6 14.9-76 21.4c-26.3 5.9-50.5 6.6-80.5 5.6s-62-5.7-87-10.7l23.3.3 21.8 1.1z"/></svg>